<svg width="30" height="30" viewBox="0 0 30 30" fill="none" xmlns="http://www.w3.org/2000/svg">
<path d="M17.2301 12.7698C16.047 11.5872 14.4427 10.9229 12.7699 10.9229C11.097 10.9229 9.49267 11.5872 8.30956 12.7698L3.84781 17.2301C2.66468 18.4133 2 20.0179 2 21.6911C2 23.3643 2.66468 24.969 3.84781 26.1522C5.03095 27.3353 6.63563 28 8.30883 28C9.98204 28 11.5867 27.3353 12.7699 26.1522L15 23.922" stroke="black" stroke-width="4" stroke-linecap="round" stroke-linejoin="round"/>
<path d="M12.7697 17.2301C13.9528 18.4128 15.5571 19.0771 17.2299 19.0771C18.9028 19.0771 20.5071 18.4128 21.6902 17.2301L26.152 12.7699C27.3351 11.5867 27.9998 9.98204 27.9998 8.30883C27.9998 6.63563 27.3351 5.03095 26.152 3.84781C24.9689 2.66468 23.3642 2 21.691 2C20.0178 2 18.4131 2.66468 17.2299 3.84781L14.9998 6.07796" stroke="black" stroke-width="4" stroke-linecap="round" stroke-linejoin="round"/>
</svg>
