<svg width="32" height="32" viewBox="0 0 32 32" fill="none" xmlns="http://www.w3.org/2000/svg">
<path fill-rule="evenodd" clip-rule="evenodd" d="M23.22 19.176C22.8226 18.9774 20.8746 18.02 20.512 17.8867C20.1493 17.7547 19.8853 17.6894 19.62 18.0867C19.356 18.4814 18.5973 19.3747 18.3666 19.6387C18.1346 19.904 17.904 19.936 17.508 19.7387C17.112 19.5387 15.8346 19.1214 14.3213 17.772C13.144 16.7214 12.348 15.424 12.1173 15.0267C11.8866 14.6307 12.092 14.416 12.2906 14.2187C12.4693 14.0414 12.6866 13.756 12.8853 13.5254C13.084 13.2934 13.1493 13.128 13.2813 12.8627C13.4146 12.5987 13.348 12.368 13.248 12.1694C13.1493 11.9707 12.3573 10.02 12.0266 9.22671C11.7053 8.45471 11.3786 8.56004 11.136 8.54671C10.904 8.53604 10.64 8.53337 10.376 8.53337C10.112 8.53337 9.68265 8.63204 9.31998 9.02937C8.95598 9.42537 7.93332 10.384 7.93332 12.3347C7.93332 14.284 9.35198 16.168 9.55065 16.4334C9.74932 16.6974 12.344 20.7 16.3186 22.416C17.2653 22.824 18.0026 23.068 18.5773 23.2493C19.5266 23.552 20.3906 23.5093 21.0733 23.4067C21.8333 23.2933 23.4173 22.448 23.748 21.5227C24.0773 20.5974 24.0773 19.804 23.9786 19.6387C23.88 19.4734 23.616 19.3747 23.2186 19.176H23.22ZM15.9906 29.0467H15.9853C13.6246 29.0471 11.3071 28.4125 9.27598 27.2093L8.79599 26.924L3.80666 28.2333L5.13866 23.3693L4.82533 22.8707C3.50551 20.7698 2.80706 18.3384 2.81066 15.8574C2.81333 8.59071 8.72532 2.67872 15.996 2.67872C19.516 2.67872 22.8253 4.05205 25.3133 6.54271C26.5405 7.76482 27.5131 9.21813 28.175 10.8186C28.8369 12.419 29.1748 14.1348 29.1693 15.8667C29.1666 23.1333 23.2546 29.0467 15.9906 29.0467V29.0467ZM27.2066 4.65071C25.7375 3.17195 23.9896 1.99943 22.0641 1.20112C20.1386 0.402806 18.0737 -0.00543499 15.9893 5.46366e-05C7.25065 5.46366e-05 0.136 7.11338 0.133333 15.856C0.132 18.6507 0.861332 21.3787 2.24933 23.7827L0 32L8.40532 29.7947C10.7305 31.0615 13.3361 31.7253 15.984 31.7253H15.9906C24.7293 31.7253 31.8439 24.612 31.8466 15.868C31.8531 13.7844 31.4463 11.7202 30.6499 9.79475C29.8534 7.86933 28.6831 6.12094 27.2066 4.65071" fill="black"/>
</svg>
