<svg width="30" height="30" viewBox="0 0 30 30" fill="none" xmlns="http://www.w3.org/2000/svg">
<path d="M24.9009 8.11765C24.0896 8.11765 23.3116 7.79538 22.738 7.22174C22.1643 6.6481 21.842 5.87007 21.842 5.05882C21.842 4.24757 22.1643 3.46955 22.738 2.89591C23.3116 2.32227 24.0896 2 24.9009 2C25.7121 2 26.4901 2.32227 27.0638 2.89591C27.6374 3.46955 27.9597 4.24757 27.9597 5.05882C27.9597 5.87007 27.6374 6.6481 27.0638 7.22174C26.4901 7.79538 25.7121 8.11765 24.9009 8.11765Z" stroke="#484848" stroke-width="3" stroke-linecap="round" stroke-linejoin="round"/>
<path d="M1.95972 21.1173C6.54795 19.5879 10.3715 20.3526 14.195 27.9997C14.9597 23.4114 17.2538 16.5291 19.548 12.7056" stroke="#484848" stroke-width="3" stroke-linecap="round" stroke-linejoin="round"/>
</svg>
