<svg width="24" height="26" viewBox="0 0 24 26" fill="none" xmlns="http://www.w3.org/2000/svg">
<path d="M8.68279 26C6.66191 26 3.80917 25.4182 0.959717 22.8908L3.19598 20.4403C7.19158 23.9861 11.3553 22.5853 12.641 21.4023C12.7267 21.3168 12.8125 21.2366 12.8982 21.1532C8.68939 20.7491 5.61356 17.81 5.40148 17.6031C2.1784 14.4733 1.44543 10.2278 3.73994 7.92892C6.03444 5.63008 10.3498 6.28008 13.5751 9.399C13.8575 9.6655 16.9993 12.7053 17.6158 16.5544C18.5447 15.872 19.2992 14.9853 19.8195 13.9648C20.3397 12.9444 20.6112 11.8183 20.6125 10.6762C20.6205 9.71015 20.4305 8.75241 20.0537 7.86051C19.677 6.96861 19.1214 6.16095 18.4202 5.486C16.9542 4.07442 14.8795 3.29767 12.5894 3.29767V0C15.7542 0 18.6542 1.10933 20.7542 3.12217C22.8213 5.10467 23.9597 7.78483 23.9597 10.6762C23.9562 12.7891 23.3153 14.8532 22.1185 16.606C20.9217 18.3588 19.2232 19.721 17.2388 20.5194C16.7817 21.7111 16.0081 22.8128 14.9246 23.8128C13.8586 24.7932 11.7762 25.8798 9.12235 25.9903C8.9795 25.9978 8.83444 26 8.68279 26V26ZM7.2762 9.83342C6.80917 9.83342 6.40807 9.958 6.12675 10.2397C5.30367 11.0652 5.82455 13.3857 7.75312 15.2588L7.76191 15.2685C7.78939 15.2945 10.807 18.1794 14.3828 17.8837V17.8783C14.3993 14.7658 11.2971 11.8148 11.2652 11.7845L11.2432 11.7639C10.0971 10.6513 8.47071 9.83342 7.2762 9.83342Z" fill="#484848"/>
</svg>
