<svg width="30" height="27" viewBox="0 0 30 27" fill="none" xmlns="http://www.w3.org/2000/svg">
<path d="M6.17647 5.29412C5.94246 5.29412 5.71803 5.38708 5.55255 5.55255C5.38708 5.71803 5.29412 5.94246 5.29412 6.17647C5.29412 6.41049 5.38708 6.63491 5.55255 6.80039C5.71803 6.96586 5.94246 7.05882 6.17647 7.05882H13.2353C13.4693 7.05882 13.6937 6.96586 13.8592 6.80039C14.0247 6.63491 14.1176 6.41049 14.1176 6.17647C14.1176 5.94246 14.0247 5.71803 13.8592 5.55255C13.6937 5.38708 13.4693 5.29412 13.2353 5.29412H6.17647ZM6.17647 9.70588C5.94246 9.70588 5.71803 9.79884 5.55255 9.96432C5.38708 10.1298 5.29412 10.3542 5.29412 10.5882C5.29412 10.8222 5.38708 11.0467 5.55255 11.2122C5.71803 11.3776 5.94246 11.4706 6.17647 11.4706H15.3971C16.1659 10.7442 17.0481 10.1482 18.0088 9.70588H6.17647ZM6.17647 14.1176H13.4118C13.1232 14.6817 12.8909 15.2728 12.7182 15.8824H6.17647C5.94246 15.8824 5.71803 15.7894 5.55255 15.6239C5.38708 15.4584 5.29412 15.234 5.29412 15C5.29412 14.766 5.38708 14.5416 5.55255 14.3761C5.71803 14.2106 5.94246 14.1176 6.17647 14.1176V14.1176ZM4.41176 19.4118H12.3918C12.4465 20.0171 12.5576 20.6082 12.7182 21.1765H4.41176C3.24169 21.1765 2.11954 20.7117 1.29218 19.8843C0.46481 19.0569 0 17.9348 0 16.7647V4.41176C0 3.24169 0.46481 2.11954 1.29218 1.29218C2.11954 0.46481 3.24169 0 4.41176 0H23.8235C24.9936 0 26.1158 0.46481 26.9431 1.29218C27.7705 2.11954 28.2353 3.24169 28.2353 4.41176V11.0418C27.6909 10.5923 27.0992 10.2035 26.4706 9.88235V4.41176C26.4706 3.70972 26.1917 3.03643 25.6953 2.54001C25.1989 2.04359 24.5256 1.76471 23.8235 1.76471H4.41176C3.70972 1.76471 3.03643 2.04359 2.54001 2.54001C2.04359 3.03643 1.76471 3.70972 1.76471 4.41176V16.7647C1.76471 17.4667 2.04359 18.14 2.54001 18.6365C3.03643 19.1329 3.70972 19.4118 4.41176 19.4118ZM30 18.5294C30 20.6355 29.1633 22.6554 27.6741 24.1447C26.1848 25.6339 24.165 26.4706 22.0588 26.4706C19.9527 26.4706 17.9328 25.6339 16.4436 24.1447C14.9543 22.6554 14.1176 20.6355 14.1176 18.5294C14.1176 16.4233 14.9543 14.4034 16.4436 12.9142C17.9328 11.4249 19.9527 10.5882 22.0588 10.5882C24.165 10.5882 26.1848 11.4249 27.6741 12.9142C29.1633 14.4034 30 16.4233 30 18.5294V18.5294ZM26.2112 19.1541L26.2165 19.1488C26.3781 18.9852 26.4693 18.7647 26.4706 18.5347V18.5241C26.4691 18.2924 26.3766 18.0705 26.2129 17.9065L22.6835 14.3771C22.5181 14.2114 22.2936 14.1182 22.0594 14.118C21.8253 14.1179 21.6007 14.2107 21.435 14.3762C21.2693 14.5416 21.1761 14.7661 21.176 15.0003C21.1758 15.2344 21.2687 15.459 21.4341 15.6247L23.4582 17.6471H18.5294C18.2954 17.6471 18.071 17.74 17.9055 17.9055C17.74 18.071 17.6471 18.2954 17.6471 18.5294C17.6471 18.7634 17.74 18.9879 17.9055 19.1533C18.071 19.3188 18.2954 19.4118 18.5294 19.4118H23.4582L21.4341 21.4341C21.2684 21.5998 21.1754 21.8245 21.1754 22.0588C21.1754 22.2931 21.2684 22.5178 21.4341 22.6835C21.5998 22.8492 21.8245 22.9423 22.0588 22.9423C22.2931 22.9423 22.5178 22.8492 22.6835 22.6835L26.2129 19.1541H26.2112Z" fill="#484848"/>
</svg>
