<svg width="95" height="73" viewBox="0 0 95 73" fill="none" xmlns="http://www.w3.org/2000/svg">
<g filter="url(#filter0_d_163_98)">
<path d="M47.3218 0L3.99996 7.57711e-06V65H47.3218V0Z" fill="white"/>
<path d="M47.3218 0H90.6436V65H47.3218V0Z" fill="#F3F3F3"/>
<rect x="54.6711" y="33.1045" width="28.5947" height="4.19328" fill="#C4C4C4"/>
<rect x="54.6705" y="41.0488" width="27.1229" height="1.3242" fill="#C4C4C4"/>
<rect x="54.6705" y="43.0352" width="22.9178" height="1.3242" fill="#C4C4C4"/>
<rect x="54.6705" y="45.021" width="26.0716" height="1.3242" fill="#C4C4C4"/>
<rect x="54.6705" y="47.0078" width="28.5947" height="1.3242" fill="#C4C4C4"/>
<rect x="54.6705" y="48.9941" width="27.1229" height="1.3242" fill="#C4C4C4"/>
<rect x="54.6705" y="50.9805" width="22.9178" height="1.3242" fill="#C4C4C4"/>
<rect x="54.6705" y="52.9663" width="26.0716" height="1.3242" fill="#C4C4C4"/>
<rect x="54.6705" y="54.9531" width="28.5947" height="1.3242" fill="#C4C4C4"/>
<path d="M65.3974 14.6582C65.3974 15.3459 65.115 16.0055 64.6122 16.4918C64.1095 16.9782 63.4276 17.2514 62.7166 17.2514C62.0057 17.2514 61.3238 16.9782 60.8211 16.4918C60.3183 16.0055 60.0359 15.3459 60.0359 14.6582C60.0359 13.9704 60.3183 13.3108 60.8211 12.8245C61.3238 12.3382 62.0057 12.0649 62.7166 12.0649C63.4276 12.0649 64.1095 12.3382 64.6122 12.8245C65.115 13.3108 65.3974 13.9704 65.3974 14.6582V14.6582Z" fill="#C4C4C4"/>
<path d="M57.3518 8.60693C56.6408 8.60693 55.9589 8.88015 55.4562 9.36647C54.9535 9.85279 54.671 10.5124 54.671 11.2001V26.7594C54.671 27.4472 54.9535 28.1068 55.4562 28.5931C55.9589 29.0794 56.6408 29.3527 57.3518 29.3527H80.585C81.2959 29.3527 81.9778 29.0794 82.4805 28.5931C82.9833 28.1068 83.2657 27.4472 83.2657 26.7594V11.2001C83.2657 10.5124 82.9833 9.85279 82.4805 9.36647C81.9778 8.88015 81.2959 8.60693 80.585 8.60693H57.3518ZM80.585 10.3357C80.822 10.3357 81.0492 10.4268 81.2168 10.5889C81.3844 10.751 81.4785 10.9709 81.4785 11.2001V21.573L74.732 18.207C74.5644 18.1258 74.3746 18.0976 74.1896 18.1265C74.0045 18.1553 73.8335 18.2398 73.7008 18.3678L67.0704 24.7817L62.3165 21.7182C62.1449 21.6077 61.939 21.558 61.7338 21.5775C61.5286 21.597 61.3367 21.6846 61.1906 21.8254L56.4618 25.895V26.8286C56.4596 26.8056 56.4584 26.7825 56.4582 26.7594V11.2001C56.4582 10.9709 56.5523 10.751 56.7199 10.5889C56.8875 10.4268 57.1148 10.3357 57.3518 10.3357H80.585Z" fill="#C4C4C4"/>
</g>
<defs>
<filter id="filter0_d_163_98" x="0" y="0" width="94.6436" height="73" filterUnits="userSpaceOnUse" color-interpolation-filters="sRGB">
<feFlood flood-opacity="0" result="BackgroundImageFix"/>
<feColorMatrix in="SourceAlpha" type="matrix" values="0 0 0 0 0 0 0 0 0 0 0 0 0 0 0 0 0 0 127 0" result="hardAlpha"/>
<feOffset dy="4"/>
<feGaussianBlur stdDeviation="2"/>
<feComposite in2="hardAlpha" operator="out"/>
<feColorMatrix type="matrix" values="0 0 0 0 0 0 0 0 0 0 0 0 0 0 0 0 0 0 0.1 0"/>
<feBlend mode="normal" in2="BackgroundImageFix" result="effect1_dropShadow_163_98"/>
<feBlend mode="normal" in="SourceGraphic" in2="effect1_dropShadow_163_98" result="shape"/>
</filter>
</defs>
</svg>
