<svg width="267" height="210" viewBox="0 0 267 210" fill="none" xmlns="http://www.w3.org/2000/svg">
<path d="M100.119 67.5C100.119 73.4674 97.4823 79.1903 92.7883 83.4099C88.0943 87.6295 81.7279 90 75.0895 90C68.4512 90 62.0848 87.6295 57.3908 83.4099C52.6968 79.1903 50.0597 73.4674 50.0597 67.5C50.0597 61.5326 52.6968 55.8097 57.3908 51.5901C62.0848 47.3705 68.4512 45 75.0895 45C81.7279 45 88.0943 47.3705 92.7883 51.5901C97.4823 55.8097 100.119 61.5326 100.119 67.5V67.5Z" fill="#8F8F8F"/>
<path d="M33.3731 0C24.522 0 16.0334 3.16071 9.77476 8.7868C3.51609 14.4129 0 22.0435 0 30V180C0 187.956 3.51609 195.587 9.77476 201.213C16.0334 206.839 24.522 210 33.3731 210H233.612C242.463 210 250.952 206.839 257.21 201.213C263.469 195.587 266.985 187.956 266.985 180V30C266.985 22.0435 263.469 14.4129 257.21 8.7868C250.952 3.16071 242.463 0 233.612 0H33.3731V0ZM233.612 15C238.037 15 242.282 16.5804 245.411 19.3934C248.54 22.2064 250.298 26.0218 250.298 30V127.5L187.273 98.295C185.708 97.5904 183.937 97.3459 182.209 97.5963C180.481 97.8466 178.884 98.5791 177.645 99.69L115.738 155.34L71.3517 128.76C69.7491 127.801 67.8269 127.37 65.9109 127.539C63.9949 127.709 62.203 128.468 60.8392 129.69L16.6866 165V30C16.6866 26.0218 18.4446 22.2064 21.5739 19.3934C24.7033 16.5804 28.9476 15 33.3731 15H233.612Z" fill="#8F8F8F"/>
</svg>
