<svg width="204" height="140" viewBox="0 0 204 140" fill="none" xmlns="http://www.w3.org/2000/svg">
<path d="M97.9167 12.25C98.9996 12.25 100.038 12.6802 100.804 13.446C101.57 14.2118 102 15.2504 102 16.3333V24.5H122.417C123.5 24.5 124.538 24.9302 125.304 25.696C126.07 26.4618 126.5 27.5004 126.5 28.5833V49H134.667C135.75 49 136.788 49.4302 137.554 50.196C138.32 50.9618 138.75 52.0004 138.75 53.0833V81.6667C138.75 82.7496 138.32 83.7883 137.554 84.554C136.788 85.3198 135.75 85.75 134.667 85.75H106.083C105 85.75 103.962 85.3198 103.196 84.554C102.43 83.7883 102 82.7496 102 81.6667V73.5H81.5833C80.5004 73.5 79.4618 73.0698 78.696 72.304C77.9302 71.5382 77.5 70.4996 77.5 69.4167V49H69.3333C68.2504 49 67.2118 48.5698 66.446 47.804C65.6802 47.0382 65.25 45.9996 65.25 44.9167V16.3333C65.25 15.2504 65.6802 14.2118 66.446 13.446C67.2118 12.6802 68.2504 12.25 69.3333 12.25H97.9167ZM118.333 32.6667H102V44.9167C102 45.9996 101.57 47.0382 100.804 47.804C100.038 48.5698 98.9996 49 97.9167 49H85.6667V65.3333H102V53.0833C102 52.0004 102.43 50.9618 103.196 50.196C103.962 49.4302 105 49 106.083 49H118.333V32.6667Z" fill="#F4F0F4"/>
<path d="M13.72 94.08V104.44H31.864V111.72H13.72V126H4.648V86.8H34.272V94.08H13.72ZM53.368 126.448C50.1947 126.448 47.3387 125.795 44.8 124.488C42.2987 123.144 40.3387 121.296 38.92 118.944C37.5013 116.592 36.792 113.923 36.792 110.936C36.792 107.949 37.5013 105.28 38.92 102.928C40.3387 100.576 42.2987 98.7467 44.8 97.44C47.3387 96.096 50.1947 95.424 53.368 95.424C56.5413 95.424 59.3787 96.096 61.88 97.44C64.3813 98.7467 66.3413 100.576 67.76 102.928C69.1787 105.28 69.888 107.949 69.888 110.936C69.888 113.923 69.1787 116.592 67.76 118.944C66.3413 121.296 64.3813 123.144 61.88 124.488C59.3787 125.795 56.5413 126.448 53.368 126.448ZM53.368 119.28C55.608 119.28 57.4373 118.533 58.856 117.04C60.312 115.509 61.04 113.475 61.04 110.936C61.04 108.397 60.312 106.381 58.856 104.888C57.4373 103.357 55.608 102.592 53.368 102.592C51.128 102.592 49.28 103.357 47.824 104.888C46.368 106.381 45.64 108.397 45.64 110.936C45.64 113.475 46.368 115.509 47.824 117.04C49.28 118.533 51.128 119.28 53.368 119.28ZM84.0713 99.848C85.1166 98.392 86.5166 97.2907 88.2713 96.544C90.0633 95.7973 92.1166 95.424 94.4313 95.424V103.488C93.4606 103.413 92.8073 103.376 92.4713 103.376C89.97 103.376 88.01 104.085 86.5913 105.504C85.1726 106.885 84.4633 108.976 84.4633 111.776V126H75.7273V95.872H84.0713V99.848ZM130.569 95.872L116.961 127.848C115.579 131.32 113.862 133.765 111.809 135.184C109.793 136.603 107.347 137.312 104.473 137.312C102.905 137.312 101.355 137.069 99.8248 136.584C98.2941 136.099 97.0435 135.427 96.0728 134.568L99.2648 128.352C99.9368 128.949 100.702 129.416 101.561 129.752C102.457 130.088 103.334 130.256 104.193 130.256C105.387 130.256 106.358 129.957 107.105 129.36C107.851 128.8 108.523 127.848 109.121 126.504L109.233 126.224L96.1848 95.872H105.201L113.657 116.312L122.169 95.872H130.569ZM147.649 126.448C144.476 126.448 141.62 125.795 139.081 124.488C136.58 123.144 134.62 121.296 133.201 118.944C131.783 116.592 131.073 113.923 131.073 110.936C131.073 107.949 131.783 105.28 133.201 102.928C134.62 100.576 136.58 98.7467 139.081 97.44C141.62 96.096 144.476 95.424 147.649 95.424C150.823 95.424 153.66 96.096 156.161 97.44C158.663 98.7467 160.623 100.576 162.041 102.928C163.46 105.28 164.169 107.949 164.169 110.936C164.169 113.923 163.46 116.592 162.041 118.944C160.623 121.296 158.663 123.144 156.161 124.488C153.66 125.795 150.823 126.448 147.649 126.448ZM147.649 119.28C149.889 119.28 151.719 118.533 153.137 117.04C154.593 115.509 155.321 113.475 155.321 110.936C155.321 108.397 154.593 106.381 153.137 104.888C151.719 103.357 149.889 102.592 147.649 102.592C145.409 102.592 143.561 103.357 142.105 104.888C140.649 106.381 139.921 108.397 139.921 110.936C139.921 113.475 140.649 115.509 142.105 117.04C143.561 118.533 145.409 119.28 147.649 119.28ZM184.345 126.448C181.171 126.448 178.315 125.795 175.777 124.488C173.275 123.144 171.315 121.296 169.897 118.944C168.478 116.592 167.769 113.923 167.769 110.936C167.769 107.949 168.478 105.28 169.897 102.928C171.315 100.576 173.275 98.7467 175.777 97.44C178.315 96.096 181.171 95.424 184.345 95.424C187.518 95.424 190.355 96.096 192.857 97.44C195.358 98.7467 197.318 100.576 198.737 102.928C200.155 105.28 200.865 107.949 200.865 110.936C200.865 113.923 200.155 116.592 198.737 118.944C197.318 121.296 195.358 123.144 192.857 124.488C190.355 125.795 187.518 126.448 184.345 126.448ZM184.345 119.28C186.585 119.28 188.414 118.533 189.833 117.04C191.289 115.509 192.017 113.475 192.017 110.936C192.017 108.397 191.289 106.381 189.833 104.888C188.414 103.357 186.585 102.592 184.345 102.592C182.105 102.592 180.257 103.357 178.801 104.888C177.345 106.381 176.617 108.397 176.617 110.936C176.617 113.475 177.345 115.509 178.801 117.04C180.257 118.533 182.105 119.28 184.345 119.28Z" fill="#F4F0F4"/>
</svg>
