<svg width="30" height="30" viewBox="0 0 30 30" fill="none" xmlns="http://www.w3.org/2000/svg">
<g filter="url(#filter0_d_108_7)">
<path fill-rule="evenodd" clip-rule="evenodd" d="M20.5 16.5H26V22H20.5V16.5ZM12.25 16.5H17.75V22H12.25V16.5ZM4 16.5H9.5V22H4V16.5ZM20.5 8.25H26V13.75H20.5V8.25ZM12.25 8.25H17.75V13.75H12.25V8.25ZM4 8.25H9.5V13.75H4V8.25ZM20.5 0H26V5.5H20.5V0ZM12.25 0H17.75V5.5H12.25V0ZM4 0H9.5V5.5H4V0Z" fill="#FF785A"/>
</g>
<defs>
<filter id="filter0_d_108_7" x="0" y="0" width="30" height="30" filterUnits="userSpaceOnUse" color-interpolation-filters="sRGB">
<feFlood flood-opacity="0" result="BackgroundImageFix"/>
<feColorMatrix in="SourceAlpha" type="matrix" values="0 0 0 0 0 0 0 0 0 0 0 0 0 0 0 0 0 0 127 0" result="hardAlpha"/>
<feOffset dy="4"/>
<feGaussianBlur stdDeviation="2"/>
<feComposite in2="hardAlpha" operator="out"/>
<feColorMatrix type="matrix" values="0 0 0 0 0 0 0 0 0 0 0 0 0 0 0 0 0 0 0.03 0"/>
<feBlend mode="normal" in2="BackgroundImageFix" result="effect1_dropShadow_108_7"/>
<feBlend mode="normal" in="SourceGraphic" in2="effect1_dropShadow_108_7" result="shape"/>
</filter>
</defs>
</svg>
