<svg width="30" height="29" viewBox="0 0 30 29" fill="none" xmlns="http://www.w3.org/2000/svg">
<path d="M0 29L19.4986 21.9406L6.96379 9.23369L0 29ZM14.415 20.7829L4.5961 24.3408L8.10585 14.387L14.415 20.7829V20.7829ZM17.4513 15.6295L25.2368 7.7371C25.3985 7.57274 25.5906 7.44235 25.8021 7.35338C26.0136 7.2644 26.2404 7.21861 26.4694 7.21861C26.6984 7.21861 26.9251 7.2644 27.1366 7.35338C27.3481 7.44235 27.5402 7.57274 27.7019 7.7371L28.5237 8.57011L30 7.07351L29.1783 6.24051C28.4585 5.51473 27.4846 5.10731 26.4694 5.10731C25.4541 5.10731 24.4802 5.51473 23.7604 6.24051L15.9749 14.1329L17.4513 15.6295V15.6295ZM11.2256 7.65239L10.4039 8.48539L11.8802 9.98199L12.7019 9.14898C13.4179 8.41932 13.8198 7.43202 13.8198 6.40287C13.8198 5.37372 13.4179 4.38642 12.7019 3.65677L11.8802 2.82376L10.4039 4.33447L11.2256 5.16748C11.8942 5.84518 11.8942 6.97468 11.2256 7.65239ZM20.9749 14.7118L18.7604 16.9567L20.2368 18.4533L22.4513 16.2084C22.613 16.044 22.8051 15.9136 23.0166 15.8247C23.2281 15.7357 23.4548 15.6899 23.6838 15.6899C23.9128 15.6899 24.1396 15.7357 24.3511 15.8247C24.5626 15.9136 24.7547 16.044 24.9164 16.2084L27.1588 18.4815L28.6351 16.9849L26.3928 14.7118C25.673 13.986 24.6991 13.5786 23.6838 13.5786C22.6686 13.5786 21.6947 13.986 20.9749 14.7118V14.7118ZM18.1894 6.24051L13.1894 11.3092L14.6657 12.8057L19.6657 7.7371C20.3817 7.00744 20.7836 6.02014 20.7836 4.99099C20.7836 3.96184 20.3817 2.97454 19.6657 2.24489L17.4513 0L15.9749 1.49659L18.1894 3.74148C18.8579 4.4333 18.8579 5.5628 18.1894 6.24051V6.24051Z" fill="#F9FEFF"/>
</svg>
