<svg width="33" height="32" viewBox="0 0 33 32" fill="none" xmlns="http://www.w3.org/2000/svg">
<path d="M3.25203 0C2.38954 0 1.56237 0.337142 0.952498 0.937258C0.342624 1.53737 0 2.35131 0 3.2V19.2H3.25203V3.2H19.5122V0H3.25203ZM9.7561 6.4C8.8936 6.4 8.06644 6.73714 7.45656 7.33726C6.84669 7.93737 6.50407 8.75131 6.50407 9.6V25.6H9.7561V9.6H26.0163V6.4H9.7561ZM29.2683 16V28.8H16.2602V16H29.2683ZM29.2683 12.8H16.2602C15.3977 12.8 14.5705 13.1371 13.9606 13.7373C13.3508 14.3374 13.0081 15.1513 13.0081 16V28.8C13.0081 29.6487 13.3508 30.4626 13.9606 31.0627C14.5705 31.6629 15.3977 32 16.2602 32H29.2683C30.1308 32 30.958 31.6629 31.5678 31.0627C32.1777 30.4626 32.5203 29.6487 32.5203 28.8V16C32.5203 15.1513 32.1777 14.3374 31.5678 13.7373C30.958 13.1371 30.1308 12.8 29.2683 12.8ZM19.5122 17.6V27.2L26.0163 22.4L19.5122 17.6Z" fill="#F9FEFF"/>
</svg>
