<svg width="33" height="32" viewBox="0 0 33 32" fill="none" xmlns="http://www.w3.org/2000/svg">
<path d="M2.13415 0H29.7002C30.9451 0 32.0122 1.05 32.0122 2.1V22.225C32.0122 23.45 30.9451 24.325 29.878 24.325H2.13415C1.06707 24.5 0 23.45 0 22.4V2.1C0 1.05 1.06707 0 2.13415 0ZM28.4553 21V3.5H3.55691V21H28.4553ZM21.3415 14C21.3415 14 21.3415 5.25 26.6768 5.25V17.5C26.6768 18.55 25.9654 19.25 24.8984 19.25H7.11382C6.04675 19.25 5.33537 18.55 5.33537 17.5V10.5C8.89228 10.5 10.6707 17.5 10.6707 17.5C10.6707 17.5 12.4492 10.5 16.0061 10.5C19.563 10.5 21.3415 14 21.3415 14Z" fill="#F9FEFF"/>
<path d="M5.33521 28H26.6767V31.5H5.33521V28Z" fill="#F9FEFF"/>
</svg>
