<svg width="34" height="35" viewBox="0 0 34 35" fill="none" xmlns="http://www.w3.org/2000/svg">
<path d="M27.4329 27.5455C29.2649 27.5455 30.7614 26.0443 30.7614 24.2071C30.7614 21.9885 27.4329 18.3682 27.4329 18.3682C27.4329 18.3682 24.1044 21.9885 24.1044 24.2071C24.1044 26.0443 25.601 27.5455 27.4329 27.5455ZM11.6246 25.7167C11.9223 26.0111 12.4043 26.0111 12.6978 25.7167L23.4337 15.1003C23.7313 14.8059 23.7313 14.329 23.4337 14.0387L12.702 3.42239C12.6768 3.3975 12.6475 3.37262 12.6181 3.35189L9.33994 0.108932C9.26847 0.0391357 9.17208 0 9.07165 0C8.97122 0 8.87483 0.0391357 8.80335 0.108932L6.79116 2.09949C6.7206 2.1702 6.68104 2.26555 6.68104 2.3649C6.68104 2.46425 6.7206 2.5596 6.79116 2.63031L9.60823 5.41709L0.897103 14.0387C0.599466 14.3331 0.599466 14.81 0.897103 15.1003L11.6246 25.7167ZM12.1654 7.11322L19.665 14.5322H4.66997L12.1654 7.11322ZM33.2012 30.5189H0.335366C0.150915 30.5189 0 30.6682 0 30.8506V34.1682C0 34.3507 0.150915 34.5 0.335366 34.5H33.2012C33.3857 34.5 33.5366 34.3507 33.5366 34.1682V30.8506C33.5366 30.6682 33.3857 30.5189 33.2012 30.5189Z" fill="#F9FEFF"/>
</svg>
