<svg width="29" height="32" viewBox="0 0 29 32" fill="none" xmlns="http://www.w3.org/2000/svg">
<path d="M26.3451 16.7111C25.808 16.4124 25.2398 16.1739 24.6509 16C25.2398 15.8261 25.808 15.5876 26.3451 15.2889C27.5642 14.5816 28.454 13.4164 28.8187 12.0495C29.1834 10.6825 28.9932 9.22589 28.2899 8C27.5865 6.77411 26.4277 5.87938 25.0684 5.51264C23.709 5.14591 22.2604 5.3372 21.0413 6.04444C20.5175 6.36191 20.0285 6.73436 19.5828 7.15556C19.7203 6.55771 19.7944 5.94689 19.8038 5.33333C19.8038 3.91885 19.245 2.56229 18.2504 1.5621C17.2557 0.561903 15.9067 0 14.5 0C13.0933 0 11.7443 0.561903 10.7497 1.5621C9.755 2.56229 9.19621 3.91885 9.19621 5.33333C9.20562 5.94689 9.2797 6.55771 9.4172 7.15556C8.97146 6.73436 8.48254 6.36191 7.95865 6.04444C6.73955 5.3372 5.29099 5.14591 3.93163 5.51264C2.57226 5.87938 1.41346 6.77411 0.710132 8C0.00680503 9.22589 -0.18343 10.6825 0.181277 12.0495C0.545983 13.4164 1.43576 14.5816 2.65486 15.2889C3.19202 15.5876 3.76018 15.8261 4.34912 16C3.76018 16.1739 3.19202 16.4124 2.65486 16.7111C1.43576 17.4184 0.545983 18.5836 0.181277 19.9505C-0.18343 21.3175 0.00680503 22.7741 0.710132 24C1.41346 25.2259 2.57226 26.1206 3.93163 26.4874C5.29099 26.8541 6.73955 26.6628 7.95865 25.9556C8.48254 25.6381 8.97146 25.2656 9.4172 24.8444C9.2797 25.4423 9.20562 26.0531 9.19621 26.6667C9.19621 28.0812 9.755 29.4377 10.7497 30.4379C11.7443 31.4381 13.0933 32 14.5 32C15.9067 32 17.2557 31.4381 18.2504 30.4379C19.245 29.4377 19.8038 28.0812 19.8038 26.6667C19.7944 26.0531 19.7203 25.4423 19.5828 24.8444C20.0285 25.2656 20.5175 25.6381 21.0413 25.9556C22.2604 26.6628 23.709 26.8541 25.0684 26.4874C26.4277 26.1206 27.5865 25.2259 28.2899 24C28.9932 22.7741 29.1834 21.3175 28.8187 19.9505C28.454 18.5836 27.5642 17.4184 26.3451 16.7111V16.7111ZM11.5534 16C11.5534 15.414 11.7263 14.8411 12.05 14.3539C12.3738 13.8666 12.834 13.4868 13.3724 13.2626C13.9108 13.0383 14.5033 12.9796 15.0748 13.094C15.6464 13.2083 16.1714 13.4905 16.5835 13.9049C16.9956 14.3192 17.2762 14.8472 17.3899 15.422C17.5036 15.9967 17.4453 16.5925 17.2223 17.1339C16.9992 17.6753 16.6216 18.138 16.137 18.4636C15.6525 18.7892 15.0828 18.963 14.5 18.963C13.7197 18.9591 12.9725 18.6457 12.4208 18.0908C11.869 17.536 11.5573 16.7846 11.5534 16V16ZM22.22 8.1037C22.8934 7.74947 23.6769 7.67058 24.4067 7.88351C25.1366 8.09643 25.7565 8.58471 26.1368 9.24634C26.5171 9.90797 26.6285 10.6918 26.4477 11.4341C26.2669 12.1763 25.8079 12.8196 25.1665 13.2296C24.1647 13.8074 22.2052 14.2667 19.5975 14.5481C19.358 13.6966 18.9126 12.9179 18.3011 12.2815C19.848 10.1481 21.2181 8.68148 22.22 8.1037V8.1037ZM14.5 2.37037C15.2803 2.37426 16.0275 2.68768 16.5793 3.2425C17.131 3.79733 17.4427 4.54871 17.4466 5.33333C17.4466 6.48889 16.872 8.42963 15.7965 10.8296C14.9456 10.6127 14.0544 10.6127 13.2035 10.8296C12.128 8.42963 11.5534 6.48889 11.5534 5.33333C11.5573 4.54871 11.869 3.79733 12.4208 3.2425C12.9725 2.68768 13.7197 2.37426 14.5 2.37037V2.37037ZM2.75799 9.18519C3.14922 8.50598 3.79247 8.01063 4.54655 7.80786C5.30062 7.6051 6.10389 7.7115 6.78003 8.1037C7.78186 8.68148 9.15201 10.1481 10.6989 12.2815C10.0874 12.9179 9.64203 13.6966 9.40246 14.5481C6.79476 14.2667 4.83531 13.8074 3.83348 13.2296C3.15803 12.8362 2.66542 12.1894 2.46378 11.4311C2.26215 10.6728 2.36795 9.86509 2.75799 9.18519V9.18519ZM6.78003 23.8963C6.10662 24.2505 5.32315 24.3294 4.59326 24.1165C3.86337 23.9036 3.24353 23.4153 2.8632 22.7537C2.48287 22.092 2.37147 21.3082 2.55228 20.5659C2.73309 19.8237 3.19212 19.1804 3.83348 18.7704C4.83531 18.1926 6.79476 17.7333 9.40246 17.4519C9.64203 18.3034 10.0874 19.0821 10.6989 19.7185C9.15201 21.8519 7.78186 23.3185 6.78003 23.8963ZM14.5 29.6296C13.7197 29.6257 12.9725 29.3123 12.4208 28.7575C11.869 28.2027 11.5573 27.4513 11.5534 26.6667C11.5534 25.5111 12.128 23.5704 13.2035 21.1704C14.0544 21.3873 14.9456 21.3873 15.7965 21.1704C16.872 23.5704 17.4466 25.5111 17.4466 26.6667C17.4427 27.4513 17.131 28.2027 16.5793 28.7575C16.0275 29.3123 15.2803 29.6257 14.5 29.6296ZM26.242 22.8148C25.8508 23.494 25.2075 23.9894 24.4535 24.1921C23.6994 24.3949 22.8961 24.2885 22.22 23.8963C21.2181 23.3185 19.848 21.8519 18.3011 19.7185C18.9126 19.0821 19.358 18.3034 19.5975 17.4519C22.2052 17.7333 24.1647 18.1926 25.1665 18.7704C25.842 19.1638 26.3346 19.8106 26.5362 20.5689C26.7379 21.3272 26.632 22.1349 26.242 22.8148V22.8148Z" fill="#F9FEFF"/>
</svg>
