<svg width="33" height="26" viewBox="0 0 33 26" fill="none" xmlns="http://www.w3.org/2000/svg">
<path d="M2 4.75C2 4.02065 2.30553 3.32118 2.84939 2.80546C3.39325 2.28973 4.13087 2 4.9 2H28.1C28.8691 2 29.6068 2.28973 30.1506 2.80546C30.6945 3.32118 31 4.02065 31 4.75V21.25C31 21.9793 30.6945 22.6788 30.1506 23.1945C29.6068 23.7103 28.8691 24 28.1 24H4.9C4.13087 24 3.39325 23.7103 2.84939 23.1945C2.30553 22.6788 2 21.9793 2 21.25V4.75Z" stroke="#F9FEFF" stroke-width="4" stroke-linecap="round" stroke-linejoin="round"/>
<path d="M2 8.2998L12.8765 16.2511C13.9049 17.0031 15.1828 17.4128 16.5 17.4128C17.8172 17.4128 19.0951 17.0031 20.1236 16.2511L31 8.2998" stroke="#F9FEFF" stroke-width="4" stroke-linejoin="round"/>
</svg>
