<svg width="26" height="28" viewBox="0 0 26 28" fill="none" xmlns="http://www.w3.org/2000/svg">
<path d="M23.8478 0.124444L0.115555 25.6822C0.245555 26.2111 0.505555 26.6933 0.852222 27.0822C1.21333 27.4556 1.66111 27.7356 2.15222 27.8756L25.8989 2.31778C25.6244 1.24444 24.8444 0.404444 23.8478 0.124444V0.124444ZM12.8267 0L0 13.8133V18.2156L16.9144 0H12.8267ZM2.88889 0C1.3 0 0 1.4 0 3.11111V6.22222L5.77778 0H2.88889ZM23.1111 28C23.9056 28 24.6278 27.6578 25.1478 27.0822C25.6822 26.5222 26 25.7444 26 24.8889V21.7778L20.2222 28H23.1111ZM9.08556 28H13.1733L26 14.1867V9.78444L9.08556 28Z" fill="#F9FEFF"/>
</svg>
