<svg width="31" height="27" viewBox="0 0 31 27" fill="none" xmlns="http://www.w3.org/2000/svg">
<path d="M27.9 0H3.1C1.39035 0 0 1.3455 0 3V24C0 25.6545 1.39035 27 3.1 27H27.9C29.6096 27 31 25.6545 31 24V3C31 1.3455 29.6096 0 27.9 0ZM27.9015 9V9H27.1808L23.0469 3H27.9L27.9015 9ZM11.6808 9L7.54695 3H11.5707L15.7046 9H11.6808ZM19.4308 9L15.2969 3H19.3208L23.4546 9H19.4308ZM3.1 3H3.82075L7.9546 9H3.1V3ZM3.1 24V12H27.9L27.9031 24H3.1Z" fill="#F9FEFF"/>
<path d="M11 20.7639C11 22.2507 12.5646 23.2177 13.8944 22.5528L19.4223 19.7889C20.8964 19.0518 20.8964 16.9482 19.4223 16.2111L13.8944 13.4472C12.5646 12.7823 11 13.7493 11 15.2361V20.7639Z" fill="#F9FEFF"/>
</svg>
