<svg width="29" height="27" viewBox="0 0 29 27" fill="none" xmlns="http://www.w3.org/2000/svg">
<path d="M28.6215 9.35762L21.3713 16.5287C20.6071 17.2846 19.3333 16.7242 19.3333 15.6086V11.8137C12.0544 11.8648 8.98366 13.6653 11.0374 20.8499C11.2631 21.6394 10.3906 22.2508 9.77839 21.7637C7.81651 20.2028 6.04167 17.2171 6.04167 14.2034C6.04167 6.613 11.9624 5.10675 19.3333 5.06393V1.26627C19.3333 0.149672 20.608 -0.408996 21.3713 0.34616L28.6215 7.5174C29.126 8.01642 29.1264 8.85817 28.6215 9.35762V9.35762ZM19.3333 19.9931V23.625H3.22222V6.75001H5.7857C5.86706 6.74995 5.94757 6.73267 6.02239 6.69921C6.09721 6.66574 6.1648 6.61678 6.2211 6.55526C6.97395 5.73429 7.84415 5.0845 8.78952 4.56844C9.34988 4.26253 9.14225 3.37501 8.51034 3.37501H2.41667C1.08196 3.37501 0 4.50827 0 5.90626V24.4687C0 25.8667 1.08196 27 2.41667 27H20.1389C21.4736 27 22.5556 25.8667 22.5556 24.4687V19.7856C22.5556 19.3486 22.1429 19.0439 21.7494 19.1896C21.1979 19.3939 20.6072 19.4551 20.0281 19.3677C19.6621 19.3125 19.3333 19.6057 19.3333 19.9931V19.9931Z" fill="#F9FEFF"/>
</svg>
