<svg width="40" height="32" viewBox="0 0 40 32" fill="none" xmlns="http://www.w3.org/2000/svg">
<path d="M0 20.3124L0.885878 21.312C1.63829 22.1612 2.53157 22.8348 3.5147 23.2943C4.49784 23.7539 5.55157 23.9904 6.61573 23.9904C7.67988 23.9904 8.73362 23.7539 9.71675 23.2943C10.6999 22.8348 11.5932 22.1612 12.3456 21.312L14.1821 19.2396C14.2551 23.3265 16.7723 28.1905 21.6068 28.1905C26.5115 28.1905 29.0341 23.1741 29.0341 19.0476C29.0341 15.9573 27.5973 13.0865 26.706 11.5139C26.2732 10.7554 25.8082 10.0211 25.3123 9.31352L25.2934 9.2861L24.6614 8.42667L24.629 8.384C24.0285 7.62457 23.2206 7.11298 22.3333 6.93029C22.4206 5.67053 22.2751 4.40405 21.9059 3.21107C21.5368 2.0181 20.9521 0.924652 20.1888 0H34.4358C37.0448 0 39.1623 2.38933 39.1623 5.33333V26.6667C39.1623 28.0812 38.6643 29.4377 37.7779 30.4379C36.8915 31.4381 35.6893 32 34.4358 32H4.72648C3.47294 32 2.27074 31.4381 1.38435 30.4379C0.497968 29.4377 0 28.0812 0 26.6667V20.3124Z" fill="#F9FEFF"/>
</svg>
