<svg width="32" height="32" viewBox="0 0 32 32" fill="none" xmlns="http://www.w3.org/2000/svg">
<path d="M2 4C2 3.46957 2.18437 2.96086 2.51256 2.58579C2.84075 2.21071 3.28587 2 3.75 2H28.25C28.7141 2 29.1592 2.21071 29.4874 2.58579C29.8156 2.96086 30 3.46957 30 4V8C30 8.53043 29.8156 9.03914 29.4874 9.41421C29.1592 9.78929 28.7141 10 28.25 10H3.75C3.28587 10 2.84075 9.78929 2.51256 9.41421C2.18437 9.03914 2 8.53043 2 8V4Z" stroke="#F9FEFF" stroke-width="3" stroke-linecap="round" stroke-linejoin="round"/>
<path d="M2 16C2 15.4696 2.21071 14.9609 2.58579 14.5858C2.96086 14.2107 3.46957 14 4 14H16C16.5304 14 17.0391 14.2107 17.4142 14.5858C17.7893 14.9609 18 15.4696 18 16V28C18 28.5304 17.7893 29.0391 17.4142 29.4142C17.0391 29.7893 16.5304 30 16 30H4C3.46957 30 2.96086 29.7893 2.58579 29.4142C2.21071 29.0391 2 28.5304 2 28V16Z" stroke="#F9FEFF" stroke-width="3" stroke-linecap="round" stroke-linejoin="round"/>
<path d="M22 16C22 15.4696 22.2107 14.9609 22.5858 14.5858C22.9609 14.2107 23.4696 14 24 14H28C28.5304 14 29.0391 14.2107 29.4142 14.5858C29.7893 14.9609 30 15.4696 30 16V28C30 28.5304 29.7893 29.0391 29.4142 29.4142C29.0391 29.7893 28.5304 30 28 30H24C23.4696 30 22.9609 29.7893 22.5858 29.4142C22.2107 29.0391 22 28.5304 22 28V16Z" stroke="#F9FEFF" stroke-width="3" stroke-linecap="round" stroke-linejoin="round"/>
</svg>
