<svg width="110" height="66" viewBox="0 0 110 66" fill="none" xmlns="http://www.w3.org/2000/svg">
<path d="M53.8389 24.4824C54.1468 24.4824 54.442 24.6047 54.6598 24.8225C54.8775 25.0402 54.9998 25.3355 54.9998 25.6434V27.9653H60.8045C61.1124 27.9653 61.4077 28.0876 61.6255 28.3053C61.8432 28.523 61.9655 28.8183 61.9655 29.1262V34.931H64.2874C64.5953 34.931 64.8906 35.0533 65.1083 35.271C65.326 35.4887 65.4483 35.784 65.4483 36.0919V44.2185C65.4483 44.5264 65.326 44.8217 65.1083 45.0395C64.8906 45.2572 64.5953 45.3795 64.2874 45.3795H56.1607C55.8528 45.3795 55.5576 45.2572 55.3398 45.0395C55.1221 44.8217 54.9998 44.5264 54.9998 44.2185V41.8966H49.1951C48.8872 41.8966 48.5919 41.7743 48.3741 41.5566C48.1564 41.3389 48.0341 41.0436 48.0341 40.7357V34.931H45.7122C45.4043 34.931 45.109 34.8086 44.8913 34.5909C44.6736 34.3732 44.5513 34.0779 44.5513 33.77V25.6434C44.5513 25.3355 44.6736 25.0402 44.8913 24.8225C45.109 24.6047 45.4043 24.4824 45.7122 24.4824H53.8389ZM59.6436 30.2872H54.9998V33.77C54.9998 34.0779 54.8775 34.3732 54.6598 34.5909C54.442 34.8086 54.1468 34.931 53.8389 34.931H50.356V39.5747H54.9998V36.0919C54.9998 35.784 55.1221 35.4887 55.3398 35.271C55.5576 35.0533 55.8528 34.931 56.1607 34.931H59.6436V30.2872Z" fill="#636363"/>
<path d="M8.828 47.094V49.9846H13.8903V52.0158H8.828V56H6.29683V45.0629H14.5622V47.094H8.828ZM19.8901 56.125C19.0048 56.125 18.2079 55.9427 17.4996 55.5781C16.8017 55.2032 16.2548 54.6875 15.859 54.0313C15.4632 53.3751 15.2653 52.6303 15.2653 51.797C15.2653 50.9637 15.4632 50.2189 15.859 49.5627C16.2548 48.9065 16.8017 48.3961 17.4996 48.0315C18.2079 47.6565 19.0048 47.469 19.8901 47.469C20.7755 47.469 21.5672 47.6565 22.2651 48.0315C22.963 48.3961 23.5098 48.9065 23.9056 49.5627C24.3015 50.2189 24.4994 50.9637 24.4994 51.797C24.4994 52.6303 24.3015 53.3751 23.9056 54.0313C23.5098 54.6875 22.963 55.2032 22.2651 55.5781C21.5672 55.9427 20.7755 56.125 19.8901 56.125ZM19.8901 54.1251C20.5151 54.1251 21.0255 53.9167 21.4213 53.5001C21.8276 53.073 22.0307 52.5053 22.0307 51.797C22.0307 51.0887 21.8276 50.5262 21.4213 50.1096C21.0255 49.6825 20.5151 49.469 19.8901 49.469C19.2652 49.469 18.7496 49.6825 18.3433 50.1096C17.9371 50.5262 17.734 51.0887 17.734 51.797C17.734 52.5053 17.9371 53.073 18.3433 53.5001C18.7496 53.9167 19.2652 54.1251 19.8901 54.1251ZM28.4566 48.7034C28.7483 48.2971 29.1389 47.9898 29.6285 47.7815C30.1285 47.5732 30.7013 47.469 31.3472 47.469V49.719C31.0763 49.6981 30.8941 49.6877 30.8003 49.6877C30.1024 49.6877 29.5556 49.8856 29.1597 50.2814C28.7639 50.6668 28.566 51.2502 28.566 52.0314V56H26.1286V47.594H28.4566V48.7034ZM41.4298 47.594L37.6331 56.5156C37.2477 57.4843 36.7685 58.1666 36.1956 58.5624C35.6332 58.9582 34.9509 59.1561 34.1488 59.1561C33.7113 59.1561 33.2791 59.0884 32.852 58.953C32.4249 58.8176 32.076 58.6301 31.8052 58.3905L32.6958 56.6562C32.8832 56.8229 33.0968 56.9531 33.3364 57.0468C33.5863 57.1406 33.8311 57.1875 34.0707 57.1875C34.404 57.1875 34.6749 57.1041 34.8832 56.9375C35.0915 56.7812 35.279 56.5156 35.4457 56.1406L35.4769 56.0625L31.8364 47.594H34.3519L36.7112 53.297L39.0862 47.594H41.4298ZM46.1954 56.125C45.31 56.125 44.5132 55.9427 43.8049 55.5781C43.107 55.2032 42.5601 54.6875 42.1643 54.0313C41.7685 53.3751 41.5706 52.6303 41.5706 51.797C41.5706 50.9637 41.7685 50.2189 42.1643 49.5627C42.5601 48.9065 43.107 48.3961 43.8049 48.0315C44.5132 47.6565 45.31 47.469 46.1954 47.469C47.0808 47.469 47.8725 47.6565 48.5704 48.0315C49.2682 48.3961 49.8151 48.9065 50.2109 49.5627C50.6067 50.2189 50.8047 50.9637 50.8047 51.797C50.8047 52.6303 50.6067 53.3751 50.2109 54.0313C49.8151 54.6875 49.2682 55.2032 48.5704 55.5781C47.8725 55.9427 47.0808 56.125 46.1954 56.125ZM46.1954 54.1251C46.8204 54.1251 47.3308 53.9167 47.7266 53.5001C48.1329 53.073 48.336 52.5053 48.336 51.797C48.336 51.0887 48.1329 50.5262 47.7266 50.1096C47.3308 49.6825 46.8204 49.469 46.1954 49.469C45.5705 49.469 45.0548 49.6825 44.6486 50.1096C44.2424 50.5262 44.0393 51.0887 44.0393 51.797C44.0393 52.5053 44.2424 53.073 44.6486 53.5001C45.0548 53.9167 45.5705 54.1251 46.1954 54.1251ZM56.4337 56.125C55.5484 56.125 54.7515 55.9427 54.0432 55.5781C53.3453 55.2032 52.7984 54.6875 52.4026 54.0313C52.0068 53.3751 51.8089 52.6303 51.8089 51.797C51.8089 50.9637 52.0068 50.2189 52.4026 49.5627C52.7984 48.9065 53.3453 48.3961 54.0432 48.0315C54.7515 47.6565 55.5484 47.469 56.4337 47.469C57.3191 47.469 58.1108 47.6565 58.8087 48.0315C59.5066 48.3961 60.0534 48.9065 60.4492 49.5627C60.8451 50.2189 61.043 50.9637 61.043 51.797C61.043 52.6303 60.8451 53.3751 60.4492 54.0313C60.0534 54.6875 59.5066 55.2032 58.8087 55.5781C58.1108 55.9427 57.3191 56.125 56.4337 56.125ZM56.4337 54.1251C57.0587 54.1251 57.5691 53.9167 57.9649 53.5001C58.3712 53.073 58.5743 52.5053 58.5743 51.797C58.5743 51.0887 58.3712 50.5262 57.9649 50.1096C57.5691 49.6825 57.0587 49.469 56.4337 49.469C55.8088 49.469 55.2932 49.6825 54.8869 50.1096C54.4807 50.5262 54.2776 51.0887 54.2776 51.797C54.2776 52.5053 54.4807 53.073 54.8869 53.5001C55.2932 53.9167 55.8088 54.1251 56.4337 54.1251ZM63.4872 56.125C63.0602 56.125 62.7008 55.9792 62.4091 55.6875C62.1175 55.3959 61.9716 55.0313 61.9716 54.5938C61.9716 54.1459 62.1175 53.7865 62.4091 53.5157C62.7008 53.2345 63.0602 53.0938 63.4872 53.0938C63.9143 53.0938 64.2737 53.2345 64.5653 53.5157C64.857 53.7865 65.0028 54.1459 65.0028 54.5938C65.0028 55.0313 64.857 55.3959 64.5653 55.6875C64.2737 55.9792 63.9143 56.125 63.4872 56.125ZM70.6102 56.125C69.7144 56.125 68.9071 55.9427 68.1884 55.5781C67.4801 55.2032 66.9228 54.6875 66.5165 54.0313C66.1207 53.3751 65.9228 52.6303 65.9228 51.797C65.9228 50.9637 66.1207 50.2189 66.5165 49.5627C66.9228 48.9065 67.4801 48.3961 68.1884 48.0315C68.9071 47.6565 69.7144 47.469 70.6102 47.469C71.4955 47.469 72.2664 47.6565 72.9226 48.0315C73.5892 48.3961 74.0736 48.9221 74.3757 49.6096L72.4851 50.6252C72.0476 49.8544 71.4174 49.469 70.5945 49.469C69.9591 49.469 69.4331 49.6773 69.0165 50.0939C68.5998 50.5106 68.3915 51.0783 68.3915 51.797C68.3915 52.5157 68.5998 53.0834 69.0165 53.5001C69.4331 53.9167 69.9591 54.1251 70.5945 54.1251C71.4278 54.1251 72.058 53.7397 72.4851 52.9688L74.3757 54.0001C74.0736 54.6667 73.5892 55.1875 72.9226 55.5625C72.2664 55.9375 71.4955 56.125 70.6102 56.125ZM79.6721 56.125C78.7867 56.125 77.9899 55.9427 77.2816 55.5781C76.5837 55.2032 76.0368 54.6875 75.641 54.0313C75.2452 53.3751 75.0473 52.6303 75.0473 51.797C75.0473 50.9637 75.2452 50.2189 75.641 49.5627C76.0368 48.9065 76.5837 48.3961 77.2816 48.0315C77.9899 47.6565 78.7867 47.469 79.6721 47.469C80.5575 47.469 81.3491 47.6565 82.047 48.0315C82.7449 48.3961 83.2918 48.9065 83.6876 49.5627C84.0834 50.2189 84.2813 50.9637 84.2813 51.797C84.2813 52.6303 84.0834 53.3751 83.6876 54.0313C83.2918 54.6875 82.7449 55.2032 82.047 55.5781C81.3491 55.9427 80.5575 56.125 79.6721 56.125ZM79.6721 54.1251C80.2971 54.1251 80.8075 53.9167 81.2033 53.5001C81.6096 53.073 81.8127 52.5053 81.8127 51.797C81.8127 51.0887 81.6096 50.5262 81.2033 50.1096C80.8075 49.6825 80.2971 49.469 79.6721 49.469C79.0471 49.469 78.5315 49.6825 78.1253 50.1096C77.7191 50.5262 77.5159 51.0887 77.5159 51.797C77.5159 52.5053 77.7191 53.073 78.1253 53.5001C78.5315 53.9167 79.0471 54.1251 79.6721 54.1251ZM96.6758 47.469C97.7279 47.469 98.5612 47.7815 99.1758 48.4065C99.8007 49.0211 100.113 49.9481 100.113 51.1877V56H97.6758V51.5626C97.6758 50.896 97.5352 50.4012 97.2539 50.0783C96.9831 49.745 96.5925 49.5783 96.0821 49.5783C95.5092 49.5783 95.0561 49.7658 94.7228 50.1408C94.3895 50.5054 94.2228 51.0522 94.2228 51.7814V56H91.7854V51.5626C91.7854 50.2398 91.2541 49.5783 90.1917 49.5783C89.6292 49.5783 89.1813 49.7658 88.848 50.1408C88.5146 50.5054 88.348 51.0522 88.348 51.7814V56H85.9106V47.594H88.2386V48.5627C88.5511 48.2086 88.9313 47.9378 89.3792 47.7503C89.8375 47.5628 90.3375 47.469 90.8791 47.469C91.4729 47.469 92.0093 47.5888 92.4885 47.8284C92.9676 48.0576 93.353 48.3961 93.6447 48.844C93.9884 48.4065 94.4207 48.068 94.9415 47.8284C95.4727 47.5888 96.0509 47.469 96.6758 47.469Z" fill="#636363"/>
<path d="M26.555 15.1H28.781C29.313 15.1 29.782 15.2027 30.188 15.408C30.5987 15.6087 30.916 15.8933 31.14 16.262C31.3687 16.6307 31.483 17.06 31.483 17.55C31.483 18.04 31.3687 18.4693 31.14 18.838C30.916 19.2067 30.5987 19.4937 30.188 19.699C29.782 19.8997 29.313 20 28.781 20H26.555V15.1ZM28.725 19.069C29.215 19.069 29.6047 18.9337 29.894 18.663C30.188 18.3877 30.335 18.0167 30.335 17.55C30.335 17.0833 30.188 16.7147 29.894 16.444C29.6047 16.1687 29.215 16.031 28.725 16.031H27.689V19.069H28.725ZM35.9502 18.131C35.9502 18.145 35.9432 18.243 35.9292 18.425H33.0802C33.1315 18.6583 33.2529 18.8427 33.4442 18.978C33.6355 19.1133 33.8735 19.181 34.1582 19.181C34.3542 19.181 34.5269 19.153 34.6762 19.097C34.8302 19.0363 34.9725 18.943 35.1032 18.817L35.6842 19.447C35.3295 19.853 34.8115 20.056 34.1302 20.056C33.7055 20.056 33.3299 19.9743 33.0032 19.811C32.6765 19.643 32.4245 19.412 32.2472 19.118C32.0699 18.824 31.9812 18.4903 31.9812 18.117C31.9812 17.7483 32.0675 17.417 32.2402 17.123C32.4175 16.8243 32.6579 16.5933 32.9612 16.43C33.2692 16.262 33.6122 16.178 33.9902 16.178C34.3589 16.178 34.6925 16.2573 34.9912 16.416C35.2899 16.5747 35.5232 16.8033 35.6912 17.102C35.8639 17.396 35.9502 17.739 35.9502 18.131ZM33.9972 17.004C33.7499 17.004 33.5422 17.074 33.3742 17.214C33.2062 17.354 33.1035 17.5453 33.0662 17.788H34.9212C34.8839 17.55 34.7812 17.361 34.6132 17.221C34.4452 17.0763 34.2399 17.004 33.9972 17.004ZM37.9442 20.056C37.6315 20.056 37.3259 20.0187 37.0272 19.944C36.7285 19.8647 36.4905 19.7667 36.3132 19.65L36.6772 18.866C36.8452 18.9733 37.0482 19.062 37.2862 19.132C37.5242 19.1973 37.7575 19.23 37.9862 19.23C38.4482 19.23 38.6792 19.1157 38.6792 18.887C38.6792 18.7797 38.6162 18.7027 38.4902 18.656C38.3642 18.6093 38.1705 18.5697 37.9092 18.537C37.6012 18.4903 37.3469 18.4367 37.1462 18.376C36.9455 18.3153 36.7705 18.208 36.6212 18.054C36.4765 17.9 36.4042 17.6807 36.4042 17.396C36.4042 17.158 36.4719 16.948 36.6072 16.766C36.7472 16.5793 36.9479 16.4347 37.2092 16.332C37.4752 16.2293 37.7879 16.178 38.1472 16.178C38.4132 16.178 38.6769 16.2083 38.9382 16.269C39.2042 16.325 39.4235 16.4043 39.5962 16.507L39.2322 17.284C38.9009 17.0973 38.5392 17.004 38.1472 17.004C37.9139 17.004 37.7389 17.0367 37.6222 17.102C37.5055 17.1673 37.4472 17.2513 37.4472 17.354C37.4472 17.4707 37.5102 17.5523 37.6362 17.599C37.7622 17.6457 37.9629 17.69 38.2382 17.732C38.5462 17.7833 38.7982 17.8393 38.9942 17.9C39.1902 17.956 39.3605 18.061 39.5052 18.215C39.6499 18.369 39.7222 18.5837 39.7222 18.859C39.7222 19.0923 39.6522 19.3 39.5122 19.482C39.3722 19.664 39.1669 19.8063 38.8962 19.909C38.6302 20.007 38.3129 20.056 37.9442 20.056ZM40.396 16.234H41.488V20H40.396V16.234ZM40.942 15.709C40.7413 15.709 40.578 15.6507 40.452 15.534C40.326 15.4173 40.263 15.2727 40.263 15.1C40.263 14.9273 40.326 14.7827 40.452 14.666C40.578 14.5493 40.7413 14.491 40.942 14.491C41.1426 14.491 41.306 14.547 41.432 14.659C41.558 14.771 41.621 14.911 41.621 15.079C41.621 15.261 41.558 15.4127 41.432 15.534C41.306 15.6507 41.1426 15.709 40.942 15.709ZM46.3864 16.234V19.37C46.3864 20.0607 46.2068 20.574 45.8474 20.91C45.4881 21.246 44.9631 21.414 44.2724 21.414C43.9084 21.414 43.5631 21.3697 43.2364 21.281C42.9098 21.1923 42.6391 21.064 42.4244 20.896L42.8584 20.112C43.0171 20.2427 43.2178 20.3453 43.4604 20.42C43.7031 20.4993 43.9458 20.539 44.1884 20.539C44.5664 20.539 44.8441 20.4527 45.0214 20.28C45.2034 20.112 45.2944 19.8553 45.2944 19.51V19.349C45.0098 19.6617 44.6131 19.818 44.1044 19.818C43.7591 19.818 43.4418 19.7433 43.1524 19.594C42.8678 19.44 42.6414 19.2253 42.4734 18.95C42.3054 18.6747 42.2214 18.3573 42.2214 17.998C42.2214 17.6387 42.3054 17.3213 42.4734 17.046C42.6414 16.7707 42.8678 16.5583 43.1524 16.409C43.4418 16.255 43.7591 16.178 44.1044 16.178C44.6504 16.178 45.0658 16.3577 45.3504 16.717V16.234H46.3864ZM44.3214 18.922C44.6108 18.922 44.8464 18.838 45.0284 18.67C45.2151 18.4973 45.3084 18.2733 45.3084 17.998C45.3084 17.7227 45.2151 17.501 45.0284 17.333C44.8464 17.1603 44.6108 17.074 44.3214 17.074C44.0321 17.074 43.7941 17.1603 43.6074 17.333C43.4208 17.501 43.3274 17.7227 43.3274 17.998C43.3274 18.2733 43.4208 18.4973 43.6074 18.67C43.7941 18.838 44.0321 18.922 44.3214 18.922ZM49.6918 16.178C50.1585 16.178 50.5341 16.318 50.8188 16.598C51.1081 16.878 51.2528 17.2933 51.2528 17.844V20H50.1608V18.012C50.1608 17.7133 50.0955 17.4917 49.9648 17.347C49.8341 17.1977 49.6451 17.123 49.3978 17.123C49.1225 17.123 48.9031 17.2093 48.7398 17.382C48.5765 17.55 48.4948 17.802 48.4948 18.138V20H47.4028V16.234H48.4458V16.675C48.5905 16.5163 48.7701 16.395 48.9848 16.311C49.1995 16.2223 49.4351 16.178 49.6918 16.178ZM55.9727 18.131C55.9727 18.145 55.9657 18.243 55.9517 18.425H53.1027C53.154 18.6583 53.2753 18.8427 53.4667 18.978C53.658 19.1133 53.896 19.181 54.1807 19.181C54.3767 19.181 54.5493 19.153 54.6987 19.097C54.8527 19.0363 54.995 18.943 55.1257 18.817L55.7067 19.447C55.352 19.853 54.834 20.056 54.1527 20.056C53.728 20.056 53.3523 19.9743 53.0257 19.811C52.699 19.643 52.447 19.412 52.2697 19.118C52.0923 18.824 52.0037 18.4903 52.0037 18.117C52.0037 17.7483 52.09 17.417 52.2627 17.123C52.44 16.8243 52.6803 16.5933 52.9837 16.43C53.2917 16.262 53.6347 16.178 54.0127 16.178C54.3813 16.178 54.715 16.2573 55.0137 16.416C55.3123 16.5747 55.5457 16.8033 55.7137 17.102C55.8863 17.396 55.9727 17.739 55.9727 18.131ZM54.0197 17.004C53.7723 17.004 53.5647 17.074 53.3967 17.214C53.2287 17.354 53.126 17.5453 53.0887 17.788H54.9437C54.9063 17.55 54.8037 17.361 54.6357 17.221C54.4677 17.0763 54.2623 17.004 54.0197 17.004ZM60.5357 14.806V20H59.4927V19.566C59.222 19.8927 58.83 20.056 58.3167 20.056C57.962 20.056 57.64 19.9767 57.3507 19.818C57.066 19.6593 56.842 19.433 56.6787 19.139C56.5153 18.845 56.4337 18.5043 56.4337 18.117C56.4337 17.7297 56.5153 17.389 56.6787 17.095C56.842 16.801 57.066 16.5747 57.3507 16.416C57.64 16.2573 57.962 16.178 58.3167 16.178C58.7973 16.178 59.173 16.3297 59.4437 16.633V14.806H60.5357ZM58.5057 19.16C58.781 19.16 59.0097 19.0667 59.1917 18.88C59.3737 18.6887 59.4647 18.4343 59.4647 18.117C59.4647 17.7997 59.3737 17.5477 59.1917 17.361C59.0097 17.1697 58.781 17.074 58.5057 17.074C58.2257 17.074 57.9947 17.1697 57.8127 17.361C57.6307 17.5477 57.5397 17.7997 57.5397 18.117C57.5397 18.4343 57.6307 18.6887 57.8127 18.88C57.9947 19.0667 58.2257 19.16 58.5057 19.16ZM65.7828 20.084C65.0828 20.084 64.5368 19.8903 64.1448 19.503C63.7574 19.1157 63.5638 18.5627 63.5638 17.844V15.1H64.6978V17.802C64.6978 18.6793 65.0618 19.118 65.7898 19.118C66.1444 19.118 66.4151 19.013 66.6018 18.803C66.7884 18.5883 66.8818 18.2547 66.8818 17.802V15.1H68.0018V17.844C68.0018 18.5627 67.8058 19.1157 67.4138 19.503C67.0264 19.8903 66.4828 20.084 65.7828 20.084ZM70.3124 20.056C69.9997 20.056 69.694 20.0187 69.3954 19.944C69.0967 19.8647 68.8587 19.7667 68.6814 19.65L69.0454 18.866C69.2134 18.9733 69.4164 19.062 69.6544 19.132C69.8924 19.1973 70.1257 19.23 70.3544 19.23C70.8164 19.23 71.0474 19.1157 71.0474 18.887C71.0474 18.7797 70.9844 18.7027 70.8584 18.656C70.7324 18.6093 70.5387 18.5697 70.2774 18.537C69.9694 18.4903 69.715 18.4367 69.5144 18.376C69.3137 18.3153 69.1387 18.208 68.9894 18.054C68.8447 17.9 68.7724 17.6807 68.7724 17.396C68.7724 17.158 68.84 16.948 68.9754 16.766C69.1154 16.5793 69.316 16.4347 69.5774 16.332C69.8434 16.2293 70.156 16.178 70.5154 16.178C70.7814 16.178 71.045 16.2083 71.3064 16.269C71.5724 16.325 71.7917 16.4043 71.9644 16.507L71.6004 17.284C71.269 17.0973 70.9074 17.004 70.5154 17.004C70.282 17.004 70.107 17.0367 69.9904 17.102C69.8737 17.1673 69.8154 17.2513 69.8154 17.354C69.8154 17.4707 69.8784 17.5523 70.0044 17.599C70.1304 17.6457 70.331 17.69 70.6064 17.732C70.9144 17.7833 71.1664 17.8393 71.3624 17.9C71.5584 17.956 71.7287 18.061 71.8734 18.215C72.018 18.369 72.0904 18.5837 72.0904 18.859C72.0904 19.0923 72.0204 19.3 71.8804 19.482C71.7404 19.664 71.535 19.8063 71.2644 19.909C70.9984 20.007 70.681 20.056 70.3124 20.056ZM72.7641 16.234H73.8561V20H72.7641V16.234ZM73.3101 15.709C73.1095 15.709 72.9461 15.6507 72.8201 15.534C72.6941 15.4173 72.6311 15.2727 72.6311 15.1C72.6311 14.9273 72.6941 14.7827 72.8201 14.666C72.9461 14.5493 73.1095 14.491 73.3101 14.491C73.5108 14.491 73.6741 14.547 73.8001 14.659C73.9261 14.771 73.9891 14.911 73.9891 15.079C73.9891 15.261 73.9261 15.4127 73.8001 15.534C73.6741 15.6507 73.5108 15.709 73.3101 15.709ZM77.1586 16.178C77.6253 16.178 78.0009 16.318 78.2856 16.598C78.5749 16.878 78.7196 17.2933 78.7196 17.844V20H77.6276V18.012C77.6276 17.7133 77.5623 17.4917 77.4316 17.347C77.3009 17.1977 77.1119 17.123 76.8646 17.123C76.5893 17.123 76.3699 17.2093 76.2066 17.382C76.0433 17.55 75.9616 17.802 75.9616 18.138V20H74.8696V16.234H75.9126V16.675C76.0573 16.5163 76.2369 16.395 76.4516 16.311C76.6663 16.2223 76.9019 16.178 77.1586 16.178ZM83.6355 16.234V19.37C83.6355 20.0607 83.4558 20.574 83.0965 20.91C82.7371 21.246 82.2121 21.414 81.5215 21.414C81.1575 21.414 80.8121 21.3697 80.4855 21.281C80.1588 21.1923 79.8881 21.064 79.6735 20.896L80.1075 20.112C80.2661 20.2427 80.4668 20.3453 80.7095 20.42C80.9521 20.4993 81.1948 20.539 81.4375 20.539C81.8155 20.539 82.0931 20.4527 82.2705 20.28C82.4525 20.112 82.5435 19.8553 82.5435 19.51V19.349C82.2588 19.6617 81.8621 19.818 81.3535 19.818C81.0081 19.818 80.6908 19.7433 80.4015 19.594C80.1168 19.44 79.8905 19.2253 79.7225 18.95C79.5545 18.6747 79.4705 18.3573 79.4705 17.998C79.4705 17.6387 79.5545 17.3213 79.7225 17.046C79.8905 16.7707 80.1168 16.5583 80.4015 16.409C80.6908 16.255 81.0081 16.178 81.3535 16.178C81.8995 16.178 82.3148 16.3577 82.5995 16.717V16.234H83.6355ZM81.5705 18.922C81.8598 18.922 82.0955 18.838 82.2775 18.67C82.4641 18.4973 82.5575 18.2733 82.5575 17.998C82.5575 17.7227 82.4641 17.501 82.2775 17.333C82.0955 17.1603 81.8598 17.074 81.5705 17.074C81.2811 17.074 81.0431 17.1603 80.8565 17.333C80.6698 17.501 80.5765 17.7227 80.5765 17.998C80.5765 18.2733 80.6698 18.4973 80.8565 18.67C81.0431 18.838 81.2811 18.922 81.5705 18.922Z" fill="#636363"/>
<path d="M45.5171 63.021C45.0598 63.021 44.6421 62.9113 44.2641 62.692C43.8908 62.4727 43.5945 62.174 43.3751 61.796C43.1605 61.418 43.0531 61.0027 43.0531 60.55C43.0531 60.0973 43.1605 59.682 43.3751 59.304C43.5945 58.926 43.8931 58.6273 44.2711 58.408C44.6491 58.1887 45.0691 58.079 45.5311 58.079C45.9931 58.079 46.4108 58.1863 46.7841 58.401C47.1621 58.6157 47.4585 58.912 47.6731 59.29C47.8878 59.6633 47.9951 60.0787 47.9951 60.536C47.9951 60.9933 47.8855 61.4133 47.6661 61.796C47.4468 62.174 47.1481 62.4727 46.7701 62.692C46.3921 62.9113 45.9745 63.021 45.5171 63.021ZM45.5171 62.566C45.8905 62.566 46.2288 62.4773 46.5321 62.3C46.8401 62.118 47.0805 61.873 47.2531 61.565C47.4305 61.2523 47.5191 60.9093 47.5191 60.536C47.5191 60.158 47.4328 59.8173 47.2601 59.514C47.0921 59.2107 46.8565 58.9727 46.5531 58.8C46.2498 58.6227 45.9091 58.534 45.5311 58.534C45.1531 58.534 44.8125 58.6227 44.5091 58.8C44.2058 58.9773 43.9678 59.22 43.7951 59.528C43.6225 59.836 43.5361 60.1767 43.5361 60.55C43.5361 60.9233 43.6225 61.264 43.7951 61.572C43.9678 61.88 44.2035 62.1227 44.5021 62.3C44.8055 62.4773 45.1438 62.566 45.5171 62.566ZM45.6081 61.964C45.3235 61.964 45.0668 61.9033 44.8381 61.782C44.6141 61.6607 44.4368 61.4927 44.3061 61.278C44.1801 61.0633 44.1171 60.8207 44.1171 60.55C44.1171 60.2793 44.1801 60.0367 44.3061 59.822C44.4368 59.6073 44.6141 59.4393 44.8381 59.318C45.0668 59.1967 45.3235 59.136 45.6081 59.136C45.8835 59.136 46.1261 59.1967 46.3361 59.318C46.5461 59.4347 46.7025 59.5957 46.8051 59.801L46.1751 60.172C46.0491 59.9527 45.8578 59.843 45.6011 59.843C45.4145 59.843 45.2558 59.9083 45.1251 60.039C44.9991 60.165 44.9361 60.3353 44.9361 60.55C44.9361 60.7647 44.9991 60.9373 45.1251 61.068C45.2558 61.194 45.4145 61.257 45.6011 61.257C45.8578 61.257 46.0491 61.1473 46.1751 60.928L46.8051 61.292C46.7025 61.502 46.5461 61.6677 46.3361 61.789C46.1261 61.9057 45.8835 61.964 45.6081 61.964ZM54.1927 62.076V63H50.4897V62.265L52.3797 60.48C52.5803 60.2887 52.7157 60.1253 52.7857 59.99C52.8557 59.85 52.8907 59.7123 52.8907 59.577C52.8907 59.381 52.823 59.2317 52.6877 59.129C52.557 59.0217 52.3633 58.968 52.1067 58.968C51.892 58.968 51.6983 59.01 51.5257 59.094C51.353 59.1733 51.2083 59.2947 51.0917 59.458L50.2657 58.926C50.457 58.6413 50.7207 58.4197 51.0567 58.261C51.3927 58.0977 51.7777 58.016 52.2117 58.016C52.5757 58.016 52.893 58.0767 53.1637 58.198C53.439 58.3147 53.6513 58.4827 53.8007 58.702C53.9547 58.9167 54.0317 59.171 54.0317 59.465C54.0317 59.731 53.9757 59.9807 53.8637 60.214C53.7517 60.4473 53.5347 60.7133 53.2127 61.012L52.0857 62.076H54.1927ZM56.7469 63.084C56.3409 63.084 55.9792 62.9837 55.6619 62.783C55.3446 62.5823 55.0949 62.293 54.9129 61.915C54.7356 61.5323 54.6469 61.0773 54.6469 60.55C54.6469 60.0227 54.7356 59.57 54.9129 59.192C55.0949 58.8093 55.3446 58.5177 55.6619 58.317C55.9792 58.1163 56.3409 58.016 56.7469 58.016C57.1529 58.016 57.5146 58.1163 57.8319 58.317C58.1492 58.5177 58.3966 58.8093 58.5739 59.192C58.7559 59.57 58.8469 60.0227 58.8469 60.55C58.8469 61.0773 58.7559 61.5323 58.5739 61.915C58.3966 62.293 58.1492 62.5823 57.8319 62.783C57.5146 62.9837 57.1529 63.084 56.7469 63.084ZM56.7469 62.125C57.0456 62.125 57.2789 61.9967 57.4469 61.74C57.6196 61.4833 57.7059 61.0867 57.7059 60.55C57.7059 60.0133 57.6196 59.6167 57.4469 59.36C57.2789 59.1033 57.0456 58.975 56.7469 58.975C56.4529 58.975 56.2196 59.1033 56.0469 59.36C55.8789 59.6167 55.7949 60.0133 55.7949 60.55C55.7949 61.0867 55.8789 61.4833 56.0469 61.74C56.2196 61.9967 56.4529 62.125 56.7469 62.125ZM63.0179 62.076V63H59.3149V62.265L61.2049 60.48C61.4055 60.2887 61.5409 60.1253 61.6109 59.99C61.6809 59.85 61.7159 59.7123 61.7159 59.577C61.7159 59.381 61.6482 59.2317 61.5129 59.129C61.3822 59.0217 61.1885 58.968 60.9319 58.968C60.7172 58.968 60.5235 59.01 60.3509 59.094C60.1782 59.1733 60.0335 59.2947 59.9169 59.458L59.0909 58.926C59.2822 58.6413 59.5459 58.4197 59.8819 58.261C60.2179 58.0977 60.6029 58.016 61.0369 58.016C61.4009 58.016 61.7182 58.0767 61.9889 58.198C62.2642 58.3147 62.4765 58.4827 62.6259 58.702C62.7799 58.9167 62.8569 59.171 62.8569 59.465C62.8569 59.731 62.8009 59.9807 62.6889 60.214C62.5769 60.4473 62.3599 60.7133 62.0379 61.012L60.9109 62.076H63.0179ZM67.1468 62.076V63H63.4438V62.265L65.3338 60.48C65.5344 60.2887 65.6698 60.1253 65.7398 59.99C65.8098 59.85 65.8448 59.7123 65.8448 59.577C65.8448 59.381 65.7771 59.2317 65.6418 59.129C65.5111 59.0217 65.3174 58.968 65.0608 58.968C64.8461 58.968 64.6524 59.01 64.4798 59.094C64.3071 59.1733 64.1624 59.2947 64.0458 59.458L63.2198 58.926C63.4111 58.6413 63.6748 58.4197 64.0108 58.261C64.3468 58.0977 64.7318 58.016 65.1658 58.016C65.5298 58.016 65.8471 58.0767 66.1178 58.198C66.3931 58.3147 66.6054 58.4827 66.7548 58.702C66.9088 58.9167 66.9858 59.171 66.9858 59.465C66.9858 59.731 66.9298 59.9807 66.8178 60.214C66.7058 60.4473 66.4888 60.7133 66.1668 61.012L65.0398 62.076H67.1468Z" fill="#636363"/>
<line y1="0.5" x2="110" y2="0.5" stroke="#636363"/>
</svg>
